<?xml version="1.0" encoding="UTF-8" standalone="no"?>
<!-- Created with Inkscape (http://www.inkscape.org/) -->

<svg
   xmlns:dc="http://purl.org/dc/elements/1.1/"
   xmlns:cc="http://creativecommons.org/ns#"
   xmlns:rdf="http://www.w3.org/1999/02/22-rdf-syntax-ns#"
   xmlns:svg="http://www.w3.org/2000/svg"
   xmlns="http://www.w3.org/2000/svg"
   xmlns:sodipodi="http://sodipodi.sourceforge.net/DTD/sodipodi-0.dtd"
   xmlns:inkscape="http://www.inkscape.org/namespaces/inkscape"
   width="32"
   height="32"
   id="svg3869"
   version="1.1"
   inkscape:version="0.92.4 5da689c313, 2019-01-14"
   sodipodi:docname="device.svg"
   viewBox="0 0 32 32">
  <defs
     id="defs3871">
    <style
       type="text/css"
       id="current-color-scheme">
      .ColorScheme-Text {
        color:#31363b;
      }
      .ColorScheme-Background {
        color:#eff0f1;
      }
      .ColorScheme-Highlight {
        color:#3daee9;
      }
      .ColorScheme-ViewText {
        color:#31363b;
      }
      .ColorScheme-ViewBackground {
        color:#fcfcfc;
      }
      .ColorScheme-ViewHover {
        color:#93cee9;
      }
      .ColorScheme-ViewFocus{
        color:#3daee9;
      }
      .ColorScheme-ButtonText {
        color:#31363b;
      }
      .ColorScheme-ButtonBackground {
        color:#eff0f1;
      }
      .ColorScheme-ButtonHover {
        color:#93cee9;
      }
      .ColorScheme-ButtonFocus{
        color:#3daee9;
      }
      </style>
  </defs>
  <sodipodi:namedview
     id="base"
     pagecolor="#ffffff"
     bordercolor="#666666"
     borderopacity="1.0"
     inkscape:pageopacity="0.0"
     inkscape:pageshadow="2"
     inkscape:zoom="8"
     inkscape:cx="4.066031"
     inkscape:cy="-2.5090433"
     inkscape:document-units="px"
     inkscape:current-layer="layer1"
     showgrid="true"
     fit-margin-top="0"
     fit-margin-left="0"
     fit-margin-right="0"
     fit-margin-bottom="0"
     inkscape:window-width="1920"
     inkscape:window-height="1027"
     inkscape:window-x="0"
     inkscape:window-y="30"
     inkscape:window-maximized="1"
     inkscape:showpageshadow="false"
     showguides="false">
    <inkscape:grid
       type="xygrid"
       id="grid4132"
       originx="5"
       originy="4.9999826"
       spacingx="1"
       spacingy="1" />
  </sodipodi:namedview>
  <metadata
     id="metadata3874">
    <rdf:RDF>
      <cc:Work
         rdf:about="">
        <dc:format>image/svg+xml</dc:format>
        <dc:type
           rdf:resource="http://purl.org/dc/dcmitype/StillImage" />
        <dc:title />
      </cc:Work>
    </rdf:RDF>
  </metadata>
  <g
     inkscape:label="Capa 1"
     inkscape:groupmode="layer"
     id="layer1"
     transform="translate(-321,-529.36218)">
    <g
       style="clip-rule:evenodd;fill-rule:evenodd;stroke-linejoin:round;stroke-miterlimit:1.41420996"
       id="device-notifier"
       transform="translate(321,529.3622)">
      <path
         style="fill:#f9fafa;fill-opacity:1"
         d="M 9,5 C 8,5 8,6 8,6 L 6,22 v 5.041016 c 0,1 0,1 1,1 h 18.052734 c 1,0 1,0 1,-1 V 22 L 25,6 c 0,0 0,-1 -1,-1 z m 0,1 h 15 l 1.052734,16 H 7 Z M 7,23 h 18.052734 v 4.041016 H 7 Z m 15,1 v 2 h 2 v -2 z"
         transform="translate(0,-2e-5)"
         id="path2"
         inkscape:connector-curvature="0"
         sodipodi:nodetypes="sccssssccssccccccccccccccc" />
      <rect
         y="0"
         x="0"
         height="32"
         width="32"
         id="rect817"
         style="fill:#ffffff;fill-opacity:0;stroke-width:0.86188805" />
    </g>
    <g
       style="clip-rule:evenodd;fill-rule:evenodd;stroke-linejoin:round;stroke-miterlimit:1.41420996"
       id="22-22-device-notifier"
       transform="translate(353,534.36218)">
      <path
         style="fill:#f9fafa;fill-opacity:1"
         d="m 38.5,7.1250174 c -1,0 -1,1 -1,1 L 36,20.125 v 3 c 0,1 0,1 1,1 h 12.046875 c 1,0 1,0 1,-1 v -3 l -1,-11.9999826 c 0,0 0,-1 -1,-1 z m 0,1 h 9.546875 l 1,11.9999826 H 37 Z M 37,21.125 h 12.046875 v 2 H 37 Z m 10.546875,0.5 v 1 h 1 v -1 z"
         transform="translate(-32,-5)"
         id="path2-2"
         inkscape:connector-curvature="0"
         sodipodi:nodetypes="sccssssccssccccccccccccccc" />
      <rect
         y="0"
         x="0"
         height="22"
         width="22"
         id="rect817-1"
         style="fill:#ffffff;fill-opacity:0;stroke-width:0.54634756" />
    </g>
    <g
       id="g881"
       inkscape:label="#16-16-device-notifier">
      <g
         transform="translate(375,537.36218)"
         id="16-16-device-notifier"
         style="clip-rule:evenodd;fill-rule:evenodd;stroke-linejoin:round;stroke-miterlimit:1.41420996;fill:#000000;fill-opacity:0.19011407">
        <rect
           style="fill:#000000;fill-opacity:0;stroke-width:0.86204332"
           id="rect817-7"
           width="16"
           height="16"
           x="0"
           y="0" />
      </g>
      <path
         id="path855"
         d="M 58 9 C 57 9 57 10 57 10 L 56 19 L 56 22 C 56 23 56 23 57 23 L 67 23 C 68 23 68 23 68 22 L 68 19 L 67 10 C 67 10 67 9 66 9 L 58 9 z M 58 10 L 66 10 L 67 19 L 57 19 L 58 10 z M 57 20 L 67 20 L 67 22 L 57 22 L 57 20 z M 65.5 20.5 L 65.5 21.5 L 66.5 21.5 L 66.5 20.5 L 65.5 20.5 z "
         style="fill:#f9fafa;fill-opacity:1;stroke:none;stroke-width:0.1;stroke-linecap:butt;stroke-linejoin:miter;stroke-miterlimit:4;stroke-dasharray:none;stroke-opacity:1"
         transform="translate(321,529.36218)" />
    </g>
    <path
       style="fill:none;fill-opacity:0.17110267;stroke:none;stroke-width:1px;stroke-linecap:butt;stroke-linejoin:miter;stroke-opacity:1"
       d="m 378,548.36222 1,-9 h 8 l 1,9 z"
       id="path870"
       inkscape:connector-curvature="0" />
  </g>
</svg>
